<?xml version="1.0" encoding="UTF-8" standalone="no"?>
<svg xmlns="http://www.w3.org/2000/svg" xmlns:xlink="http://www.w3.org/1999/xlink" width="48" height="48" version="1.0">
  <defs>
    <linearGradient id="a">
      <stop offset="0" stop-color="#3f3f3f"/>
      <stop offset="1" stop-color="#fff"/>
    </linearGradient>
    <linearGradient xlink:href="#a" id="b" x1="40.605217" x2="17.594276" y1="12.89941" y2="36.913795" gradientTransform="matrix(.96376 0 0 .7931 -1.7786882 -2.5602451)" gradientUnits="userSpaceOnUse"/>
  </defs>
  <g transform="translate(-.074106 11.579644) scale(1.26806)">
    <path id="c" fill="url(#b)" fill-opacity="1" fill-rule="evenodd" stroke="#323232" stroke-dasharray="none" stroke-linecap="butt" stroke-linejoin="miter" stroke-miterlimit="4" stroke-opacity="1" stroke-width=".41774637" d="M24.424881 26.020489c2.009508-.708782 2.625288-2.926039 3.531618-4.751657 1.062023-1.113794 1.980231 1.454865 4.051545 1.217263 1.426334-.162405 3.694776-2.570638 2.811061-4.138277-1.942138-1.699218-3.325246.49569-4.531188-.918009-.184112-1.52294 4.010533-2.621164 3.027396-3.732523-1.793631-1.332624-5.134544-.985102-8.344029-2.221525-1.432182-1.6181823 3.236193-.944258 2.208715-2.5244612-.420789-.634509-3.213765-2.1796995-6.380729-1.5146766-2.033822.6749494.355857 2.7382808-2.822245 2.5244609-2.173237-.2703938-5.866553-1.6872865-7.975909-1.009785C8.3668072 10.069742 7.5582415 11.631424 7.4242843 12.18261c-.332092 1.706123 3.6074277.561742 4.1809617 1.006103 1.697299 1.399125-1.9271108 3.13369-2.9516624 2.54471-.4099508-.82499-1.402807-1.254576-2.7666661-.96445-1.3844367.08577-3.7092857 4.209632-3.0161875 5.293639 1.1617336 1.353652 7.451904 3.066425 9.008341 2.87229 2.036634.05236.918158-.840179 1.064435-1.984026.313539-1.455668 7.576276.610365 6.029579 1.59711-2.070609.382212-2.643022 1.091778-1.883419 1.819454 1.376821 1.167016 6.171138 2.205385 7.335215 1.653049z"/>
    <use xlink:href="#c" width="42.279999" height="42.279999" transform="translate(.07178268 -.3589134)"/>
  </g>
  <g transform="rotate(-2.32 54.94099157 18.49105125) scale(.50426)">
    <path fill="#333" fill-opacity=".50196078" d="M56.62740401 53.981894c1.02956779-.1663423 2.08227417-.1913428 3.13006205-.224656 1.04956045-.02572075 2.1005432-.02237575 3.15224467-.00880732 2.10506935.01267073 4.21466995.10158408 6.33484373.2499238 2.12323255.15957835 4.2457391.35874802 6.4206866.87841885.54552533.1370372 1.09619111.29728135 1.65684618.53214776.54571664.23958452 1.17218007.54174925 1.61438118 1.14655674.21262735.29782671.32341335.67337785.28218291 1.01168435-.03619452.33946096-.18568028.62900028-.35852093.8686384-.18119811.24347014-.36503815.43172779-.59822997.62831132-.19205326.1624246-.36733814.29324621-.55296764.44133588-1.48238308 1.14030237-3.20475787 2.06320272-4.92661451 2.92299453-.87096717.4206483-1.75779992.81227206-2.63560551 1.20021826l-.65640721.28781221-.16799403.07309669-.2383849.09623896c-.160665.05992775-.32395017.11781762-.48928378.16709522-.66183387.20178443-1.33038114.31389289-1.95404463.36875077-1.24757722.11205409-2.33369567.08149462-3.24841955.12902478-.458738.02033676-.86519305.05936455-1.21629314.11970456-.26110126.04313092-.69250722.16170231-1.04040972.27929817-.71707756.24372695-1.36105525.58803789-1.99174947 1.02448942-.31787833.2159689-.62981365.45485472-.94296173.70879227l-.47264545.39508382-.30786567.25275282c-.11622288.0844862-.22934529.17495138-.35119.25287961-.97132643.645767-2.08065004 1.05440557-3.16138099 1.35894794-1.08992153.30004075-2.17823466.48788334-3.24153128.64409874-1.06972025.1499524-2.106774.2508706-3.12601904.36736819-1.06197129.11867745-2.14500017.21432528-3.24888657.253938-1.09038113.0350448-2.25564233.01172877-3.32994637-.08270473-.51273948-.04041914-1.08540876-.08213012-1.665357-.16574249-.58395633-.0907617-1.19724202-.19063128-1.86743784-.49851735-.33180044-.16132788-.67535962-.38426706-.8848671-.7551452l-.04952665-.10284008-.04325439-.1339786c-.0218328-.08452247-.029019-.15754367-.03205532-.22721594-.00353245-.13541092.00994577-.25494664.03158156-.36398991.08827747-.43529863.25399081-.79632173.40784556-1.1500047.14228899-.32136606.30085197-.72618179.50289966-1.07169027.19913142-.35527817.41675372-.7000907.65931975-1.03343708.9618825-1.3381795 2.24316073-2.49775846 3.54808846-3.62030176 1.32247276-1.11660523 2.7635035-2.15525584 4.30863943-3.10729232 3.09357609-1.89517092 6.71935806-3.38476583 10.75022865-4.1132783zM42.6071887 51.45744399c.10659107 1.38193874-.00784765 2.7635037-.36087899 4.10618014-.34943356 1.34397995-.93354476 2.64613596-1.67407774 3.89806374-.74872196 1.2500505-1.66178132 2.44901472-2.71612152 3.58733013-1.06771412 1.1271059-2.21764766 2.23823786-3.75617567 3.14628348-.38534438.22493164-.79909259.4332932-1.24560461.61881504-.377555.16253153-.79787327.36842848-1.32005097.5284617-.13859913.03911908-.28007401.07853833-.4615648.10638846-.16289282.0311561-.47295804.03527916-.6415648.0086016-.49119082-.06853628-.80487892-.23049959-1.07279635-.39011383-.51222067-.32674912-.81817725-.66944252-1.10233193-1.00139002-.27401337-.33153864-.50954249-.65281774-.73977537-.96330281-.11489664-.16094056-.2344356-.34976906-.34630678-.52342791-.09984203-.17281721-.20999955-.34560446-.30106385-.51976262-.37932556-.69673284-.67330514-1.40934762-.92076664-2.1060292-.45214779-1.33374075-1.0491505-2.7672702-.93047645-4.42041873.0421864-.4128134.14093786-.83996204.3293826-1.2681035.0931387-.21048767.2228296-.43510895.35289572-.62803006l.28710622-.43953462c.36829613-.57037152.64104956-1.11139206.77317723-1.6391446.07167533-.26330846.10918517-.52534805.11383121-.79108953.00394747-.1317802-.0013976-.26952169-.01689569-.39905328-.01512797-.09783261-.03728003-.19871173-.07536942-.3267168-.13798752-.48956246-.469745-1.08198443-.82912799-1.78564238-.3515246-.69754573-.71814295-1.5599755-.675989-2.53419164.00413896-.12023948.0187692-.24094834.03546234-.36166305l.0429972-.26030288.09216978-.51200398.19494736-1.03163674c.27808254-1.37853908.63839471-2.77032054 1.17201028-4.14201263.27444595-.6843346.58661363-1.36337472.94722916-2.03130833l.2830152-.5065748c.1087197-.18248636.24131631-.38344929.3857379-.56589424.30493759-.37078052.68485967-.77275083 1.3898692-1.10307064.34751585-.16127393.80040132-.28545943 1.2682825-.31663298.46973908-.03410064.922971.02285771 1.30072178.11568213.75646824.19353455 1.26713346.48639716 1.71081256.77156757.86835285.58179122 1.47358556 1.20145993 2.0413594 1.82547449 1.10984252 1.25219557 1.97432586 2.5425081 2.76860787 3.84690473.78872202 1.30455907 1.5189322 2.61630181 2.15137471 3.94922148.3237785.66388071.63314328 1.33116451.90480464 2.0051319.2710309.6738238.55185099 1.34893325.6411437 2.0529452z" opacity=".6"/>
    <path fill="none" stroke="#666" stroke-linecap="round" stroke-miterlimit="10" d="M58.151 21.486999c-5.571001 1.017-9.579001 5.756-11.209001 10.957001"/>
    <circle cx="58.151001" cy="21.487" r=".75199997" fill="#666"/>
    <path fill="none" stroke="#666" stroke-linecap="round" stroke-miterlimit="10" d="M43.415999 18.337999c5.128 3.359 3.23 9.021 3.023 14.232001"/>
    <circle cx="43.416" cy="18.337999" r=".75199997" fill="#666"/>
    <path fill="#333" stroke="#4d4d4d" stroke-miterlimit="10" d="M47.182 31.385c-.035-.026-.068-.051-.067-.053.917.691 1.639 2.04 1.126 3.182-.457 1.018-1.834.916-2.337 1.886-.635 1.224.695 2.549.069 3.795-.609 1.213-2.434 1.623-2.253 3.232.074.657.399 1.268.416 1.933.012.46-.088.938-.148 1.394-.243 1.848-4.971 17.096-7.979 14.627-2.196-1.802-.902-6.301-.329-8.535.977-3.811 2.766-7.056 4.943-10.312 1.065-1.593-.78-3.521.268-5.147.624-.968 1.914-1.008 2.63-1.822.987-1.122-.336-2.543.908-3.563.625-.514 2.141-1.056 2.833-.56.001.002-.041-.028-.08-.057z"/>
    <path fill="#4ca5e6" d="M38.903 28.286c3.791 9.962 2.064 20.88-1.544 29.274-1.029 2.396-2.452 4.96-4.293 6.742-.524.509-1.617 1.761-2.385 1.951-1.475.362-3.188-1.813-3.957-2.69-1.661-1.896-2.906-4.046-4.005-6.295-1.596-3.262-4.067-7.75-3.254-11.657.6-2.879.964-5.561.029-8.6-1.059-3.442-4.486-5.835-5.099-9.562-.906-5.503-1.92-11.78-1.547-18.092.893-15.075 23.935 13.359 26.055 18.929z"/>
    <path fill="#333" d="M39.022 28.241c.96 2.834 1.598 5.773 1.866 8.745.274 2.973.182 5.971-.167 8.939-.362 2.968-.993 5.908-1.865 8.789-.898 2.864-1.925 5.734-3.636 8.366-.43.654-.911 1.287-1.453 1.888-.455.52-.947 1.151-1.614 1.735-.179.148-.362.298-.61.443-.219.143-.668.3-.929.325-.755.092-1.306-.096-1.789-.301-.936-.437-1.581-1.006-2.188-1.563-.592-.561-1.122-1.119-1.638-1.657-.261-.281-.545-.618-.809-.927-.246-.313-.507-.621-.741-.941-.958-1.273-1.801-2.62-2.567-3.956-1.435-2.568-3.139-5.275-3.929-8.783-.179-.882-.284-1.821-.259-2.805.013-.484.071-1.015.148-1.48l.162-1.055c.204-1.367.286-2.627.171-3.792-.049-.584-.147-1.149-.295-1.706-.071-.277-.159-.562-.257-.825-.079-.197-.17-.397-.3-.646-.486-.956-1.314-2.034-2.247-3.331-.918-1.288-1.954-2.913-2.46-4.967-.064-.253-.113-.512-.159-.772l-.089-.564-.164-1.113-.317-2.247c-.398-3.011-.684-6.089-.706-9.208.001-1.56.06-3.127.196-4.694l.117-1.193c.052-.433.128-.916.232-1.366.228-.92.547-1.941 1.381-2.968.412-.503.999-.979 1.662-1.268.664-.296 1.357-.394 1.961-.381 1.214.042 2.128.409 2.94.792 1.603.799 2.845 1.803 4.035 2.834 2.345 2.083 4.355 4.363 6.271 6.706 1.908 2.346 3.735 4.735 5.432 7.215.858 1.231 1.697 2.476 2.485 3.753.787 1.277 1.589 2.552 2.129 3.979zm-.238.089c-1.316-2.634-3.264-4.946-5.149-7.225-1.949-2.244-3.971-4.422-6.121-6.451-2.154-2.016-4.4-3.948-6.765-5.535-1.174-.78-2.409-1.486-3.553-1.868-.559-.19-1.105-.268-1.39-.21-.299.086-.162.103-.253.248-.082.163-.213.613-.266 1.148-.033.283-.046.541-.053.852l.003 1.041c.019 1.414.107 2.833.249 4.253.258 2.843.697 5.696 1.189 8.584l.375 2.175.196 1.095.093.542c.022.107.041.214.071.323.204.862.78 1.823 1.567 2.966.775 1.144 1.805 2.427 2.648 4.151.199.42.4.907.567 1.415.141.442.255.877.353 1.327.198.894.315 1.81.353 2.715.064 1.818-.2 3.545-.535 5.109-.085.406-.181.79-.27 1.14-.068.266-.113.475-.147.736-.062.505-.06 1.063.006 1.653.236 2.409 1.384 5.062 2.567 7.825.545 1.343 1.127 2.624 1.808 3.846.165.31.353.599.528.901.187.285.347.549.555.847.441.607.867 1.194 1.293 1.725.417.519.875.991 1.268 1.247.179.128.37.172.362.195.112-.004.021.029.132-.001.083-.027.204-.097.324-.17.513-.333 1.024-.815 1.626-1.347.524-.443 1.012-.951 1.472-1.493 1.846-2.182 3.177-4.876 4.28-7.616.559-1.373 1.029-2.782 1.426-4.215.408-1.429.729-2.885.957-4.356.938-5.863.538-12.06-1.766-17.572z"/>
    <path fill="#50c0e0" d="M16.884 10.399c1.302 1.109 2.759 1.759 4.294 2.356.77.296 1.556.587 2.354.925.799.321 1.626.795 2.365 1.28 1.487 1.028 2.704 2.329 3.799 3.635 1.118 1.285 2.125 2.729 2.958 4.225l2.48 4.479c.831 1.48 1.742 2.983 2.45 4.509.706 1.543 1.232 3.194 1.543 4.909.299 1.707.374 3.519-.118 5.199-.016.054-.073.085-.127.07-.039-.012-.066-.045-.072-.083-.278-1.689-.674-3.255-1.188-4.813-.5-1.558-1.114-3.085-1.596-4.693-.479-1.626-.75-3.287-1.471-4.803-.699-1.517-1.67-2.898-2.791-4.135-2.279-2.397-4.577-4.906-7.1-6.757-.637-.489-1.266-.871-1.986-1.28-.715-.403-1.466-.802-2.205-1.257-1.477-.882-2.939-2.084-3.743-3.636l-.003-.005c-.026-.05-.006-.111.043-.137.039-.02.084-.013.114.012z"/>
    <path fill="#50c0e0" d="M16.509 18.245c.164-1.283 1.196-2.367 2.407-2.839.611-.239 1.272-.276 1.897-.242.628.012 1.238.189 1.792.463.557.265 1.075.497 1.639.599.557.112 1.214.028 1.809.175.591.148 1.08.528 1.507.952.41.447.771.961.896 1.63.012.065-.031.129-.097.141-.014.003-.032.002-.045 0-.655-.115-1.149-.308-1.646-.495-.479-.21-.948-.391-1.349-.73-.397-.34-.77-.837-1.268-1.057-.491-.229-1.054-.247-1.593-.13-.542.125-1.042.252-1.517.338-.478.109-.914.271-1.352.382-.894.215-1.74.47-2.926.941-.058.023-.124-.006-.147-.064-.007-.018-.009-.038-.007-.056v-.008zm.264 2.679c1.27-.114 2.48-.196 3.736-.223 1.249-.021 2.549.044 3.857.382 1.303.344 2.563 1.046 3.566 1.972.503.457.961.97 1.327 1.511.354.502.672 1.06 1.002 1.604.63 1.094 1.28 2.148 2.047 3.123.764.975 1.722 1.825 2.508 2.785.393.479.754.979 1.067 1.509.33.519.644 1.047.943 1.583.593 1.08 1.165 2.166 1.619 3.37.021.054-.006.114-.06.135-.033.013-.07.006-.097-.012-1.06-.743-1.927-1.663-2.735-2.614-.405-.476-.779-.973-1.138-1.477-.375-.495-.697-1.021-.988-1.569-.582-1.093-.998-2.293-1.65-3.338-.648-1.046-1.457-1.983-2.359-2.823l-1.365-1.24c-.435-.397-.85-.763-1.306-1.083-.906-.645-1.91-1.043-2.975-1.381-2.112-.712-4.691-.919-7.033-2.016-.052-.024-.074-.086-.05-.138.016-.035.049-.056.084-.06z"/>
    <path fill="#50c0e0" d="M20.111 26.942c.142-.572.599-1.054 1.15-1.305.55-.267 1.164-.334 1.697-.256.54.08 1.002.318 1.436.527.447.208.763.61 1.185.823.393.225.855.326 1.322.256.471-.073.958-.301 1.426-.316.915.045 1.892.338 2.661 1.207.044.05.039.126-.011.17-.01.009-.021.016-.034.021l-.005.002c-1.028.422-1.896.518-2.815.34-.45-.123-.882-.456-1.327-.655-.449-.197-.9-.241-1.411-.219-.481.012-1.045.125-1.486.077-.454-.049-.887-.05-1.262-.109-.774-.126-1.254-.416-2.404-.404-.069.001-.125-.054-.126-.123 0-.011.001-.021.003-.031l.001-.005zm1.678 4.753c1.299-.645 2.736-.677 4.062-.451.664.128 1.288.394 1.894.667.613.256 1.181.617 1.718 1.031.539.406 1.098.738 1.719.919.619.185 1.334.13 1.974.245.639.117 1.198.421 1.756.732.548.34 1.088.696 1.589 1.247.043.047.041.121-.007.164-.015.014-.033.023-.051.027-.729.181-1.406.124-2.064.025-.648-.127-1.287-.289-1.841-.646-.553-.36-1.026-.901-1.599-1.197-.57-.3-1.204-.444-1.866-.494-.664-.042-1.305-.116-1.913-.256-.615-.123-1.226-.215-1.811-.389-1.17-.378-2.293-.778-3.564-1.425-.055-.028-.076-.095-.048-.149.011-.021.032-.039.052-.05zm2.181 4.903c1.192-.688 2.326-1.159 3.704-1.289.669-.057 1.427.076 2.06.285.697.196 1.285.538 1.822.966.535.419 1.046.797 1.634 1.046.58.257 1.29.324 1.893.566.602.244 1.074.667 1.529 1.1.439.458.854.932 1.18 1.584.029.058.006.128-.052.157-.017.009-.036.013-.054.013-.735-.004-1.357-.224-1.95-.466-.577-.269-1.132-.553-1.572-.996-.438-.444-.785-1.042-1.292-1.397-.499-.364-1.105-.544-1.727-.593-.619-.041-1.228-.07-1.753-.122-.59-.04-1.084.009-1.662-.008-1.118-.063-2.449-.061-3.75-.646-.057-.025-.082-.092-.057-.148.011-.023.028-.041.047-.052zm4.029 25.39c1.371-.466 2-1.19 2.788-2.041l1.246-1.292c.403-.472.865-.93 1.361-1.389.489-.464.892-.994 1.141-1.604.253-.609.266-1.34.456-1.987.192-.646.576-1.202 1.001-1.741.449-.518.963-1.037 1.686-1.322.059-.023.125.006.149.064.007.02.009.044.006.063-.104.74-.284 1.347-.49 1.97-.229.604-.458 1.213-.873 1.735-.417.522-1.004.964-1.365 1.52-.366.555-.591 1.182-.767 1.855-.169.677-.407 1.335-.769 1.936-.345.608-.737 1.225-1.296 1.726-.558.491-1.257.907-2.045 1.079-.781.178-1.646.073-2.255-.372l-.005-.004c-.049-.036-.06-.106-.024-.155.015-.02.034-.033.055-.041z"/>
    <path fill="#50c0e0" d="M26.319 58.746c1.395-.514 2.398-.984 3.349-1.631.479-.309.998-.603 1.509-.967.496-.376 1.045-.742 1.63-1.107.581-.369 1.09-.821 1.477-1.375.39-.551.592-1.275.98-1.871.388-.594.965-1.036 1.585-1.407.636-.347 1.339-.622 2.123-.594.063.002.113.056.11.119 0 .021-.008.042-.019.059-.411.645-.827 1.127-1.234 1.626-.425.476-.818.966-1.356 1.346-.538.378-1.217.67-1.698 1.142-.484.469-.837 1.048-1.148 1.684-.307.64-.68 1.254-1.18 1.78-.483.538-1.037 1.069-1.726 1.425-1.379.71-3.14.77-4.418-.028l-.004-.003c-.052-.032-.067-.1-.035-.151.013-.023.033-.039.055-.047z"/>
    <path fill="#50c0e0" d="M24.778 54.702c1.247-.429 2.144-.833 3.155-1.222.498-.188 1.031-.312 1.57-.473.528-.18 1.096-.308 1.694-.419.594-.118 1.153-.33 1.606-.705.46-.366.763-.959 1.166-1.396.404-.436.924-.707 1.46-.969.553-.234 1.127-.451 1.83-.48.066-.003.122.048.125.113 0 .018-.003.034-.008.049-.256.653-.634 1.129-1.036 1.582-.419.428-.857.84-1.419 1.075-.565.234-1.237.301-1.769.568-.538.26-.985.659-1.417 1.117-.428.465-.906.879-1.45 1.186-.533.326-1.097.634-1.725.793-1.229.299-2.733.242-3.812-.623-.05-.037-.061-.107-.024-.158.013-.016.035-.031.054-.038z"/>
    <path fill="#50c0e0" d="M23.039 50.548c.561-.278 1.157-.334 1.679-.304.531.036 1.022.146 1.446.377.418.251.83.457 1.207.787.206.163.354.37.574.446.164.088.413.13.637.127.968.064 1.727-.927 2.669-1.148.478-.112.979-.184 1.511-.158.518.019 1.105.105 1.601.464.052.037.063.11.026.162-.009.013-.021.022-.033.03l-.011.007c-.919.563-1.693.984-2.652 1.24-.469.126-.996.077-1.524.013-.532-.071-1.034-.072-1.543.005-.495.089-1.14.104-1.671.184-.558.048-1.062-.09-1.554-.193-.488-.122-.901-.38-1.289-.679-.396-.304-.73-.662-1.121-1.166-.043-.055-.033-.135.022-.178.007-.005.014-.01.021-.013l.005-.003zm.101-2.94c.989-.801 2.24-.993 3.353-.942.564.036 1.099.2 1.621.364.526.143 1.025.379 1.519.654.494.267 1.01.447 1.543.423.534-.012 1.067-.311 1.556-.455.491-.142.97-.109 1.471-.105.507.034 1.019.054 1.654.209.066.015.107.08.092.146-.003.014-.009.028-.016.039-.359.562-.881.892-1.427 1.134-.552.214-1.146.356-1.728.244-.585-.113-1.126-.46-1.662-.569-.537-.12-1.086-.086-1.653.016-.568.11-1.127.162-1.66.129-.538-.012-1.064-.015-1.567-.108-1.016-.207-1.932-.501-3.071-.98-.059-.025-.086-.092-.062-.151.008-.019.022-.036.037-.048zm.283-4.237c.421-.628 1.179-1.026 1.952-1.167.781-.149 1.565-.06 2.266.129.703.198 1.313.552 1.889.891.58.321 1.112.715 1.638 1.143.531.421 1.11.75 1.75.902.639.157 1.355.043 2.003.085.649.045 1.244.264 1.853.48.604.247 1.209.498 1.826.943.052.037.064.109.028.161-.012.017-.029.03-.046.039-.697.318-1.399.383-2.092.389-.688-.024-1.381-.099-2.005-.402-.625-.305-1.169-.811-1.778-1.085-.608-.278-1.263-.418-1.953-.498-.695-.073-1.372-.209-1.995-.431-.627-.2-1.23-.372-1.782-.586-1.124-.436-2.016-.852-3.461-.815-.062.001-.112-.047-.114-.108 0-.024.006-.046.019-.065l.002-.005z"/>
    <path fill="#333" d="M41.033 40.253c-.84-.349-1.728-.21-2.535.078-.815.276-1.643.689-2.61.83-.98.152-1.953.034-2.847-.107-.918-.153-1.688-.263-2.569-.295-1.64-.062-3.354.148-5.103.379-1.756.228-3.598.48-5.578.443h-.036c-1.11-.021-1.994-.938-1.973-2.048.021-1.11.938-1.994 2.048-1.973.127.002.262.019.383.044 1.551.332 3.265.435 5.048.536 1.789.104 3.638.211 5.516.642 1.871.38 3.447 1.335 5.032 1.382.813.044 1.667-.188 2.572-.319.893-.147 1.901-.097 2.652.408z"/>
    <path fill="#4ca5e6" d="M57.18 28.155999C47.876 33.681 41.778 43.705 38.556 53.816c-.988 3.103-1.792 6.771-1.589 10.051.059.954.021 3.194.58 4.011 1.09 1.59 4.554.461 6.013.073 3.134-.832 6.035-2.268 8.824-3.897 3.966-2.317 9.545-5.219 11.35-9.734 1.276-3.193 2.61-5.946 5.349-8.125 3.025-2.407 7.652-2.412 10.26-5.262 3.698-4.042 7.696-8.441 10.229-13.345001 5.482-10.618-27.452-2.362-32.392.568z"/>
    <path fill="#333" d="M57.245 28.263999C51.632 31.383 47.208 36.356 44.008 41.867c-1.603 2.769-2.911 5.702-3.93 8.721-1.036 3.012-1.8 6.128-2.079 9.229-.064.774-.103 1.547-.082 2.312.013.784.108 1.466.194 2.326.077.787.161 1.563.332 2.188.041.156.092.289.138.387.022.045.046.081.059.092.005-.001.008 0 .009.001-.089-.122-.01-.018-.024-.037l.025.028.049.057c-.006-.056.109.035.307.046.412.058 1.095-.027 1.764-.199.686-.17 1.375-.41 2.148-.678 1.482-.493 2.793-1.081 4.15-1.797 1.342-.696 2.653-1.486 3.949-2.336 1.352-.885 2.696-1.744 3.947-2.612 2.493-1.706 4.79-3.633 5.794-5.679.07-.125.116-.252.179-.376l.17-.431.459-1.171c.323-.792.678-1.601 1.093-2.414.831-1.617 1.953-3.25 3.364-4.622.72-.694 1.396-1.276 2.414-1.889.898-.531 1.792-.924 2.629-1.243 1.676-.636 3.175-1.054 4.328-1.588.572-.269 1.061-.528 1.442-.822.1-.072.187-.149.274-.225l.126-.117.204-.209.832-.861c1.104-1.14 2.181-2.286 3.231-3.433 2.13-2.268 4.072-4.635001 5.706-7.145001.986-1.451 1.052-2.076.989-2.164-.063-.175-.516-.512-1.104-.72-.587-.223-1.287-.379-2.008-.49-2.934-.417-6.144-.258-9.282.024-3.156.304-6.305.841-9.432 1.482-1.559.341-3.107.729-4.644 1.163-1.524.448-3.074.892-4.483 1.599zm-.131-.217c1.402-.84 2.92-1.396 4.426-1.967 1.513-.556 3.045-1.052 4.584-1.527 3.072-.981 6.195-1.805 9.368-2.51C78.676 21.36 81.882 20.76 85.351 20.804c.874.025 1.769.096 2.722.318.934.239 2.022.57 3.018 1.620999.483.52.863 1.251 1 1.977.145.726.096 1.402-.016 1.985-.122.595-.28 1.076-.505 1.598-.185.431-.364.788-.548 1.186C89.528 32.579 87.558 35.33 85.552 37.949c-1.023 1.295-2.086 2.537-3.138 3.767l-.788.915-.202.233-.291.315c-.199.202-.403.401-.615.583-.846.738-1.754 1.292-2.63 1.705-1.751.831-3.35 1.287-4.654 1.824-.656.262-1.225.538-1.701.832-.355.215-.914.669-1.352 1.081-.902.852-1.639 1.879-2.303 3.092-.337.603-.652 1.251-.96 1.931l-.458 1.051-.301.675c-.12.232-.232.475-.364.696-1.038 1.813-2.415 3.197-3.811 4.35-1.412 1.148-2.887 2.061-4.344 2.896-1.47.825-2.921 1.532-4.337 2.263-1.477.756-2.998 1.474-4.582 2.085-1.567.595-3.277 1.104-4.896 1.421-.77.161-1.628.348-2.521.451-.903.09-1.854.175-3.009-.147-.577-.178-1.207-.479-1.728-1.153l-.132-.191-.141-.259c-.081-.166-.134-.315-.179-.459-.084-.281-.134-.537-.166-.775-.125-.951-.094-1.784-.076-2.596.02-.739.015-1.66.108-2.478.083-.837.199-1.661.358-2.473.621-3.254 1.811-6.288 3.057-9.256 1.275-2.964 2.768-5.822 4.463-8.549 3.4-5.437 7.811-10.282 13.255-13.732001z"/>
    <path fill="#50c0e0" d="M85.505 26.495999c-1.578.769-3.448.899-5.165.819-.867-.031-1.716-.111-2.541-.172-.836-.058-1.583-.094-2.396-.057-3.172.082-6.517.729-9.794 1.314-1.644.333-3.259.854-4.734 1.655C59.383 30.827 58.145 32.008 56.761 32.99c-1.37.98-2.795 1.821-4.152 2.752-1.375.917-2.652 1.923-3.948 3.057-.042.038-.106.035-.145-.007-.027-.03-.032-.074-.018-.109.692-1.609 1.859-2.994 3.15-4.157 1.3-1.168 2.729-2.161 4.241-2.954 1.512-.767 3.132-1.416001 4.7-2.099001l4.686-2.115c1.568-.709 3.231-1.276 4.903-1.658 1.659-.411 3.405-.75 5.205-.747.88.025 1.826.094 2.667.268.854.159 1.676.35 2.487.531 1.626.356 3.21.667 4.92.549.056-.004.104.038.108.094.003.042-.021.081-.057.098l-.003.003z"/>
    <path fill="#50c0e0" d="M81.857 32.341c-.837-.952-1.502-1.535-2.219-2.149001-.35-.306-.672-.661-1.048-.994-.385-.312-.765-.677-1.172-1.063-.41-.379-.898-.662-1.439-.733-.541-.083-1.129.129-1.656.189-.529.058-1.026-.059-1.545-.161-.521-.132-1.04-.262-1.639-.554-.061-.028-.087-.1-.06-.16.007-.014.017-.027.026-.037.495-.468 1.084-.675 1.672-.806.59-.102 1.199-.14 1.769.065.57.208 1.071.636 1.601.841.528.217 1.092.293 1.7.348.612.047 1.22.194 1.767.481.556.267 1.109.599 1.541 1.08.849.947 1.339 2.372001.897 3.608001l-.003.008c-.021.059-.086.09-.146.069-.017-.007-.033-.019-.046-.032zm-1.451 2.085c-2.651-.344-5.047-1.518-7.332-2.118-1.141-.32-2.261-.569-3.429-.58-.583-.006-1.165.047-1.768.117l-1.906.211c-1.272.151-2.526.438-3.717.903-1.194.462-2.29 1.194-3.454 1.744-1.163.551-2.403.908-3.659 1.225-1.261.296-2.55.532-3.89.516-.058 0-.104-.048-.104-.105.001-.036.021-.069.049-.087 1.126-.716 2.28-1.264 3.446-1.792 1.173-.507 2.347-1.013 3.598-1.325 1.25-.313 2.571-.438 3.809-.788 1.241-.345 2.436-.824 3.637-1.347.611-.250001 1.22-.517001 1.825-.717001.646-.223 1.335-.367 2.032-.442 1.395-.155 2.85-.015 4.155.424 1.31.44 2.481 1.083001 3.579 1.772001 1.098.697 2.14 1.417 3.202 2.203.046.034.056.099.021.145-.021.032-.059.046-.094.041z"/>
    <path fill="#50c0e0" d="M74.056 37.272c-.999-.615-1.63-.656-2.409-.988-.378-.158-.763-.404-1.191-.613-.416-.199-.851-.604-1.261-.886-.437-.308-.857-.526-1.359-.614-.497-.085-1.063-.036-1.532-.176-.915-.349-1.64-.917-2.316-1.847-.039-.055-.027-.131.027-.171.011-.008.024-.014.037-.018.582-.187 1.118-.136 1.623-.057.497.105.975.247 1.381.519.405.276.711.744 1.095 1.059.379.312.848.475 1.321.497.499.046 1.001-.109 1.509-.022.496.074 1.031.131 1.538.366.503.23.989.613 1.336 1.126.178.249.307.542.382.837.042.152.059.322.063.474-.011.142-.024.279-.061.43l-.003.01c-.015.064-.079.104-.144.089-.014-.003-.026-.008-.036-.015zm-4.118 3.066c-1.492-.182-2.734-.5-4.001-.863-.625-.193-1.226-.468-1.847-.721-.625-.234-1.238-.541-1.854-.887-.617-.338-1.265-.583-1.945-.661-.681-.083-1.416.092-2.116.073-.7-.021-1.359-.252-2.01-.517-.642-.294-1.276-.633-1.822-1.2-.044-.045-.042-.118.003-.162.016-.015.036-.025.056-.029.763-.168 1.449-.153 2.136-.121.679.063 1.354.131 1.99.399.637.271 1.24.725 1.897.926.657.206 1.347.252 2.062.227.716-.033 1.429-.006 2.12.134.695.121 1.398.258 2.06.532 1.304.572 2.557 1.415 3.375 2.699.034.05.021.119-.029.153-.022.015-.05.02-.075.018zM65.02 43.23c-1.488-.274-2.665-1.075-3.717-1.692-.53-.332-.961-.675-1.516-.983-.516-.271-1.081-.599-1.664-.924-.589-.32-1.238-.513-1.902-.508-.666 0-1.34.292-2 .406-.662.111-1.327.027-2.001-.082-.671-.14-1.354-.315-2.008-.731-.054-.034-.069-.105-.035-.159.011-.018.027-.032.045-.041.687-.349 1.345-.5 2.015-.626.668-.094 1.345-.172 2.024-.028.681.146 1.349.497 2.019.619.672.125 1.353.118 2.076.081.729-.042 1.453.016 2.178.257.688.201 1.428.529 1.993.97 1.147.925 1.915 1.993 2.61 3.281.029.054.01.121-.044.15-.024.011-.05.014-.073.01zM43.49 65.401c-.881-.09-1.737-.677-2.282-1.451-.561-.774-.85-1.687-.971-2.563-.116-.886-.014-1.751.125-2.581.122-.834.384-1.634.714-2.402.324-.77.583-1.536.691-2.336.112-.799-.019-1.655.033-2.464.185-1.616.774-3.03 1.52-4.553.026-.055.092-.078.147-.051.024.012.043.032.053.055.364.832.385 1.705.364 2.529-.055.825-.155 1.636-.458 2.392-.306.755-.8 1.461-1.029 2.229-.233.767-.294 1.573-.243 2.384.06.813.099 1.604.091 2.368.013.769.08 1.513.116 2.226.078 1.444.178 2.699 1.229 4.048.037.047.028.114-.019.15-.022.018-.05.024-.076.022l-.005-.002z"/>
    <path fill="#50c0e0" d="M47.643 63.133c-1.698-.266-3.215-1.596-3.932-3.233-.361-.818-.484-1.695-.538-2.534-.073-.841.02-1.67.188-2.476.161-.806.263-1.592.195-2.379-.063-.787-.39-1.567-.556-2.322-.165-.757-.151-1.501-.183-2.248-.004-.755-.035-1.495.003-2.357.001-.061.053-.109.114-.107.026 0 .051.011.069.026.676.578 1.07 1.367 1.347 2.16.249.802.404 1.63.316 2.446-.09.818-.407 1.613-.465 2.4-.062.787.039 1.576.254 2.345.223.768.422 1.512.586 2.228.184.718.428 1.383.653 2.027.42 1.31 1.069 2.479 2.058 3.857.035.049.023.115-.025.149-.023.018-.052.023-.079.02l-.005-.002zm4.542-3.144c-1.542-.016-2.912-1.01-3.815-2.139-.454-.582-.758-1.25-1.022-1.912-.283-.655-.44-1.357-.522-2.069-.089-.709-.229-1.38-.508-2.004-.276-.624-.787-1.18-1.105-1.801-.316-.621-.421-1.303-.502-1.983-.051-.689-.066-1.381.122-2.134.015-.062.077-.099.139-.084.021.005.04.016.054.03.552.549.884 1.164 1.189 1.778.275.623.532 1.244.599 1.92.064.676-.043 1.41.116 2.065.155.656.483 1.255.911 1.795.434.537.838 1.066 1.184 1.607.364.534.755 1.029 1.086 1.548.66 1.063 1.265 2.04 2.172 3.204.037.048.028.117-.02.154-.021.016-.045.023-.068.023h-.01z"/>
    <path fill="#50c0e0" d="M56.854 56.971c-.676.144-1.227.22-1.796.214-.56 0-1.115-.045-1.658-.23-.535-.209-1.091-.42-1.602-.768-.257-.19-.473-.401-.738-.602-.281-.198-.503-.428-.72-.628-.422-.419-.86-.787-1.377-1.106-.51-.324-1.019-.655-1.368-1.094-.708-.897-1.139-1.827-1.656-2.909l-.005-.012c-.027-.056-.003-.123.053-.149.018-.009.037-.012.055-.011.681.041 1.257.389 1.729.744.485.36.882.782 1.236 1.221.348.443.534.997.755 1.529.212.535.537.999.979 1.301.218.156.46.254.688.292.249.027.567-.004.842-.013.559.002 1.091.078 1.646.145.547.088 1.086.304 1.609.605.514.296 1.037.714 1.401 1.285l.002.004c.036.056.02.13-.036.166-.011.008-.025.013-.039.016zm1.859-3.042c-1.3-.37-2.325-.743-3.384-1.228-.52-.248-1.007-.58-1.511-.91-.512-.31-.997-.702-1.456-1.147-.464-.438-.952-.812-1.519-1.054-.559-.251-1.257-.313-1.855-.599-.595-.286-1.049-.794-1.417-1.345-.347-.569-.612-1.205-.589-1.928.002-.065.057-.116.122-.114.018 0 .037.006.051.014.631.318 1.09.656 1.562.973.449.337.903.628 1.273 1.066.366.438.688 1.024 1.175 1.374.48.357 1.065.536 1.683.631.622.089 1.227.212 1.799.43.581.198 1.173.405 1.711.737 1.053.673 2.064 1.635 2.493 2.954.021.059-.009.123-.067.144-.024.008-.05.007-.071.002zm2.499-4.31c-1.231-.979-2.33-1.242-3.628-1.566-.637-.164-1.297-.382-1.99-.588-.704-.186-1.405-.467-2.086-.817-.682-.341-1.367-.612-2.093-.745-.724-.136-1.525-.046-2.278-.171-.751-.129-1.43-.485-2.074-.885-.631-.428-1.234-.915-1.682-1.61-.034-.052-.019-.122.034-.156.02-.013.043-.019.065-.018.82.025 1.52.194 2.22.362.686.196 1.364.376 1.989.732.623.354 1.215.874 1.897 1.124.68.254 1.411.328 2.154.297.743-.039 1.475-.051 2.204.029.738.066 1.51.138 2.267.404.749.268 1.505.679 2.113 1.288.604.599 1.042 1.409 1.063 2.227v.006c.002.061-.046.11-.105.111-.026.001-.052-.008-.07-.024z"/>
    <path fill="#333" d="M44.481 40.941c1.017.037 2.037.255 3.025.457.99.199 1.979.322 2.979.386 2.011.127 3.989.078 6.046-.01 1.041-.026 2.134-.015 3.27.191.61.094 1.279.362 1.775.617.521.26.991.537 1.448.819.912.563 1.766 1.149 2.604 1.704.418.276.832.547 1.23.787.388.234.813.466 1.046.532 1.077.303 1.705 1.422 1.402 2.5-.303 1.077-1.422 1.705-2.499 1.402-.162-.046-.314-.11-.455-.19l-.198-.115c-.675-.389-1.08-.748-1.513-1.109-.419-.359-.802-.716-1.181-1.068-.752-.704-1.474-1.399-2.198-2.035-.74-.633-1.42-1.224-2.088-1.449-.831-.304-1.77-.483-2.752-.622-1.995-.255-4.074-.529-6.08-.987-1.008-.229-2.009-.522-2.969-.881-.956-.365-1.889-.728-2.892-.929z"/>
  </g>
</svg>