<?xml version="1.0" standalone="no"?>
<!DOCTYPE svg PUBLIC "-//W3C//DTD SVG 1.0//EN" "http://www.w3.org/TR/2001/REC-SVG-20010904/DTD/svg10.dtd">
<svg width="496" height="600" viewBox="0 0 496 600" xmlns="http://www.w3.org/2000/svg">
<title>Two interlinked hearts.</title> 
<g transform="translate(8,596) scale(0.721,-0.721)">
<path fill="#f00000" d="M0.597656,645.848
C0.597656,735.306,74.291,815,166,815
C235.84,815,273.887,789.645,308.365,754.122
C342.843,789.645,380.89,815,450.73,815
C542.439,815,616.134,735.306,616.134,645.848
C616.134,566.76,580.015,500.689,507.704,424.626
C436.174,349.846,353.144,271.566,308.365,226.787
C263.586,271.566,180.556,349.846,109.027,424.626
L107.516,426.221
C109.146,447.115,117.729,467.443,130.766,484.377
L148.167,465.84 L308.365,304.108 L468.562,465.84
C528.697,527.981,561.134,578.438,561.134,645.848
C561.134,704.2,508.193,760,450.73,760
C383.942,760,350.866,721.785,308.365,678.312
C265.863,721.785,232.787,760,166,760
C108.537,760,55.5977,704.199,55.5977,645.848
C55.5977,605.758,67.0693,571.665,89.0166,537.544
C75.4805,522.771,64.3994,505.711,56.4258,487.189
C19.1973,539.04,0.597656,589.092,0.597656,645.848Z"/>
<path fill="#ffc0c0" d="M47.2324,419
C47.2324,508.458,120.926,588.152,212.635,588.152
C282.475,588.152,320.522,562.796,355,527.274
C389.478,562.796,427.525,588.152,497.365,588.152
C513.738,588.152,529.537,585.612,544.445,580.929
C538.01,563.985,528.943,547.574,517.307,530.938
C510.774,532.385,504.101,533.152,497.365,533.152
C430.578,533.152,397.501,494.938,355,451.464
C312.499,494.938,279.422,533.152,212.635,533.152
C155.172,533.152,102.232,477.352,102.232,419
C102.232,351.589,134.668,301.134,194.802,238.992
L355,77.2607 L515.198,238.992
C575.332,301.134,607.769,351.589,607.769,419
C607.769,448.256,594.461,476.87,573.948,498.132
C585.124,515.143,594.33,532.09,601.55,549.252
C638.953,517.555,662.769,469.855,662.769,419
C662.769,339.912,626.65,273.841,554.339,197.778
C482.809,122.998,399.779,44.7188,355,-0.0605469
C310.221,44.7188,227.191,122.998,155.662,197.778
C83.3486,273.841,47.2324,339.912,47.2324,419Z"/>
</g></svg>
